<?xml version="1.0" standalone="no"?>
<!DOCTYPE svg PUBLIC "-//W3C//DTD SVG 20010904//EN"
 "http://www.w3.org/TR/2001/REC-SVG-20010904/DTD/svg10.dtd">
<svg version="1.0" xmlns="http://www.w3.org/2000/svg"
 width="355.000000pt" height="410.000000pt" viewBox="0 0 355.000000 410.000000"
 preserveAspectRatio="xMidYMid meet">
<metadata>
Created by potrace 1.16, written by Peter Selinger 2001-2019
</metadata>
<g transform="translate(0.000000,410.000000) scale(0.100000,-0.100000)">
<path d="M2961 4054 c-63 -32 -104 -84 -129 -163 -15 -48 -17 -102 -17 -396 0
-311 2 -345 20 -400 24 -76 100 -158 160 -174 52 -14 159 -14 210 0 56 16 126
89 156 164 23 59 24 65 24 405 0 299 -2 352 -17 401 -25 79 -66 131 -129 163
-45 22 -66 26 -139 26 -73 0 -94 -4 -139 -26z m206 -119 c12 -8 30 -36 40 -62
16 -43 18 -82 18 -373 0 -234 -4 -337 -13 -367 -26 -87 -117 -121 -181 -68
-53 45 -56 69 -56 430 0 296 2 335 18 378 23 58 49 77 107 77 25 0 55 -7 67
-15z"/>
<path d="M70 4010 l0 -60 100 0 100 0 0 -515 0 -515 80 0 80 0 0 515 0 515 95
0 95 0 0 60 0 60 -275 0 -275 0 0 -60z"/>
<path d="M2419 4044 c-27 -30 -127 -81 -176 -90 l-33 -6 0 -64 c0 -62 1 -64
23 -59 34 8 168 35 173 35 2 0 4 -211 4 -470 l0 -470 80 0 80 0 0 575 0 575
-63 0 c-56 0 -66 -3 -88 -26z"/>
<path d="M805 3731 c-51 -23 -91 -69 -107 -124 -18 -58 -18 -496 0 -554 29
-96 101 -143 222 -143 130 0 194 47 225 165 21 83 21 427 0 510 -31 118 -95
165 -225 165 -51 0 -88 -6 -115 -19z m171 -122 c18 -20 19 -39 19 -279 0 -240
-1 -259 -19 -279 -13 -14 -31 -21 -56 -21 -25 0 -43 7 -56 21 -18 20 -19 39
-19 279 0 240 1 259 19 279 13 14 31 21 56 21 25 0 43 -7 56 -21z"/>
<path d="M1497 3720 l-47 -30 0 25 c0 25 -2 25 -80 25 l-80 0 0 -545 0 -545
80 0 80 0 0 160 0 160 42 -30 c76 -56 194 -36 245 42 42 63 53 133 53 358 0
222 -9 283 -50 344 -35 49 -69 66 -137 66 -48 0 -68 -5 -106 -30z m98 -112
c36 -32 49 -129 42 -333 -7 -226 -28 -266 -124 -235 -66 22 -63 9 -63 286 l0
253 28 19 c54 38 81 40 117 10z"/>
<path d="M275 2319 l-250 -191 -3 -59 -3 -59 78 0 78 0 49 -907 c26 -500 51
-950 54 -1000 l5 -93 48 0 49 0 0 910 0 910 78 0 77 0 28 -512 c16 -282 31
-541 34 -575 l6 -63 48 0 49 0 0 575 0 575 1080 0 1080 0 0 -575 0 -575 49 0
48 0 6 63 c3 34 18 293 34 575 l28 512 77 0 78 0 0 -910 0 -910 49 0 48 0 5
93 c3 50 28 500 54 1000 l49 907 78 0 78 0 -3 59 -3 59 -250 191 -250 190
-1255 0 -1255 0 -250 -190z"/>
</g>
</svg>
